<?xml version="1.0" standalone="no"?><!DOCTYPE svg PUBLIC "-//W3C//DTD SVG 1.1//EN" "http://www.w3.org/Graphics/SVG/1.1/DTD/svg11.dtd"><svg class="icon" width="200px" height="200.00px" viewBox="0 0 1024 1024" version="1.1" xmlns="http://www.w3.org/2000/svg"><path d="M232.3 320.3a120.5 78.5 0 1 0 241 0 120.5 78.5 0 1 0-241 0Z" fill="#6A8995" /><path d="M775.2 984.9H209.9c-89.2 0-162.2-73-162.2-162.2V492.9c0-89.2 73-162.2 162.2-162.2h565.3c89.2 0 162.2 73 162.2 162.2v329.9c0 89.1-73 162.1-162.2 162.1z" fill="#96BED0" /><path d="M775.2 370.7c32.5 0 63.1 12.8 86.2 35.9 23.2 23.2 35.9 53.8 35.9 86.2v329.9c0 32.5-12.8 63.1-35.9 86.2-23.2 23.2-53.8 35.9-86.2 35.9H209.9c-32.5 0-63.1-12.8-86.2-35.9-23.2-23.2-35.9-53.8-35.9-86.2V492.9c0-32.5 12.8-63.1 35.9-86.2 23.2-23.2 53.8-35.9 86.2-35.9h565.3m0-40.1H209.9c-89.2 0-162.2 73-162.2 162.2v329.9c0 89.2 73 162.2 162.2 162.2h565.3c89.2 0 162.2-73 162.2-162.2V492.9c0-89.2-73-162.2-162.2-162.2z" fill="#6A8995" /><path d="M554.9 879.5H277.2c-90.9 0-165.2-74.3-165.2-165.2V597.5c0-90.9 74.3-165.2 165.2-165.2h277.7c90.9 0 165.2 74.3 165.2 165.2v116.8c0 90.9-74.3 165.2-165.2 165.2z" fill="#FFFFFF" /><path d="M316.7 299.8c-4.9 0-9.8-1.8-13.6-5.4L178.5 178.3c-8.1-7.5-8.5-20.2-1-28.3s20.2-8.5 28.3-1l124.6 116.1c8.1 7.5 8.5 20.2 1 28.3-4 4.2-9.3 6.4-14.7 6.4zM377.6 322.7c-4.3 0-8.7-1.4-12.3-4.2-8.7-6.8-10.2-19.4-3.4-28.1l104.9-134.1c6.8-8.7 19.4-10.2 28.1-3.4 8.7 6.8 10.2 19.4 3.4 28.1L393.4 315c-4 5.1-9.8 7.7-15.8 7.7z" fill="#6A8995" /><path d="M162 125.1m-52.3 0a52.3 52.3 0 1 0 104.6 0 52.3 52.3 0 1 0-104.6 0Z" fill="#6A8995" /><path d="M492.9 143.8m-44.7 0a44.7 44.7 0 1 0 89.4 0 44.7 44.7 0 1 0-89.4 0Z" fill="#6A8995" /><path d="M937.4 559H817.7c-10.9 0-19.7-8.8-19.7-19.7 0-10.9 8.8-19.7 19.7-19.7h119.7V559zM937.4 647H817.7c-10.9 0-19.7-8.8-19.7-19.7 0-10.9 8.8-19.7 19.7-19.7h119.7V647z" fill="#FFFFFF" /><path d="M841.4 718.6m-16.3 0a16.3 16.3 0 1 0 32.6 0 16.3 16.3 0 1 0-32.6 0Z" fill="#FFFFFF" /><path d="M482.2 647.5l-122.6-70.8c-6.5-3.7-14.6 0.9-14.6 8.4v141.6c0 7.5 8.1 12.2 14.6 8.4l122.6-70.8c6.5-3.7 6.5-13.1 0-16.8z" fill="#97BBCF" /></svg>